<svg width="24" height="24" viewBox="0 0 24 24" fill="none" xmlns="http://www.w3.org/2000/svg">
<path d="M5.92388 13.6173L5.46194 13.8087L5.92388 13.6173ZM20.9239 12.3827L20.4619 12.1913L20.9239 12.3827ZM5 12.5C4.72386 12.5 4.5 12.7239 4.5 13C4.5 13.2761 4.72386 13.5 5 13.5V13V12.5ZM19 13.5C19.2761 13.5 19.5 13.2761 19.5 13C19.5 12.7239 19.2761 12.5 19 12.5V13V13.5ZM11.5 20C11.5 20.2761 11.7239 20.5 12 20.5C12.2761 20.5 12.5 20.2761 12.5 20H12H11.5ZM6.29737 7.43246L6.13925 7.9068H6.13925L6.29737 7.43246ZM7.84189 8.47434C8.10386 8.56167 8.38702 8.42009 8.47434 8.15812C8.56167 7.89614 8.42009 7.61298 8.15811 7.52566L8 8L7.84189 8.47434ZM11.1214 6.12145L11.475 5.76789V5.76789L11.1214 6.12145ZM7.3246 3.77487L7.16649 4.24921V4.24921L7.3246 3.77487ZM17.7026 7.43246L17.8607 7.9068V7.9068L17.7026 7.43246ZM15.8419 7.52566C15.5799 7.61298 15.4383 7.89614 15.5257 8.15812C15.613 8.42009 15.8961 8.56167 16.1581 8.47434L16 8L15.8419 7.52566ZM12.8786 6.12145L12.525 5.76789V5.76789L12.8786 6.12145ZM16.6754 3.77487L16.8335 4.24921V4.24921L16.6754 3.77487ZM5 8V8.5H19V8V7.5H5V8ZM16 20V19.5H8V20V20.5H16V20ZM18 14.5H17.5V18H18H18.5V14.5H18ZM21 10H20.5V11.5H21H21.5V10H21ZM6 18H6.5V14.5H6H5.5V18H6ZM3 11.5H3.5V10H3H2.5V11.5H3ZM4.5 13V12.5C4.26019 12.5 4.10537 12.4997 3.98688 12.4916C3.87288 12.4839 3.82947 12.4706 3.80866 12.4619L3.61732 12.9239L3.42597 13.3858C3.58894 13.4533 3.75389 13.4781 3.91881 13.4893C4.07923 13.5003 4.27387 13.5 4.5 13.5V13ZM3 11.5H2.5C2.5 11.7261 2.49973 11.9208 2.51067 12.0812C2.52193 12.2461 2.54668 12.4111 2.61418 12.574L3.07612 12.3827L3.53806 12.1913C3.52944 12.1705 3.51613 12.1271 3.50836 12.0131C3.50027 11.8946 3.5 11.7398 3.5 11.5H3ZM3.61732 12.9239L3.80866 12.4619C3.68614 12.4112 3.58881 12.3139 3.53806 12.1913L3.07612 12.3827L2.61418 12.574C2.76642 12.9416 3.05843 13.2336 3.42597 13.3858L3.61732 12.9239ZM6 14.5H6.5C6.5 14.2739 6.50027 14.0792 6.48933 13.9188C6.47807 13.7539 6.45332 13.5889 6.38582 13.426L5.92388 13.6173L5.46194 13.8087C5.47056 13.8295 5.48387 13.8729 5.49164 13.9869C5.49973 14.1054 5.5 14.2602 5.5 14.5H6ZM4.5 13V13.5C4.73981 13.5 4.89463 13.5003 5.01312 13.5084C5.12712 13.5161 5.17054 13.5294 5.19134 13.5381L5.38268 13.0761L5.57403 12.6142C5.41106 12.5467 5.24611 12.5219 5.08119 12.5107C4.92077 12.4997 4.72613 12.5 4.5 12.5V13ZM5.92388 13.6173L6.38582 13.426C6.23358 13.0584 5.94157 12.7664 5.57403 12.6142L5.38268 13.0761L5.19134 13.5381C5.31386 13.5888 5.41119 13.6861 5.46194 13.8087L5.92388 13.6173ZM21 11.5H20.5C20.5 11.7398 20.4997 11.8946 20.4916 12.0131C20.4839 12.1271 20.4706 12.1705 20.4619 12.1913L20.9239 12.3827L21.3858 12.574C21.4533 12.4111 21.4781 12.2461 21.4893 12.0812C21.5003 11.9208 21.5 11.7261 21.5 11.5H21ZM19.5 13V13.5C19.7261 13.5 19.9208 13.5003 20.0812 13.4893C20.2461 13.4781 20.4111 13.4533 20.574 13.3858L20.3827 12.9239L20.1913 12.4619C20.1705 12.4706 20.1271 12.4839 20.0131 12.4916C19.8946 12.4997 19.7398 12.5 19.5 12.5V13ZM20.9239 12.3827L20.4619 12.1913C20.4112 12.3139 20.3139 12.4112 20.1913 12.4619L20.3827 12.9239L20.574 13.3858C20.9416 13.2336 21.2336 12.9416 21.3858 12.574L20.9239 12.3827ZM18 14.5H18.5C18.5 14.2602 18.5003 14.1054 18.5084 13.9869C18.5161 13.8729 18.5294 13.8295 18.5381 13.8087L18.0761 13.6173L17.6142 13.426C17.5467 13.5889 17.5219 13.7539 17.5107 13.9188C17.4997 14.0792 17.5 14.2739 17.5 14.5H18ZM19.5 13V12.5C19.2739 12.5 19.0792 12.4997 18.9188 12.5107C18.7539 12.5219 18.5889 12.5467 18.426 12.6142L18.6173 13.0761L18.8087 13.5381C18.8295 13.5294 18.8729 13.5161 18.9869 13.5084C19.1054 13.5003 19.2602 13.5 19.5 13.5V13ZM18.0761 13.6173L18.5381 13.8087C18.5888 13.6861 18.6861 13.5888 18.8087 13.5381L18.6173 13.0761L18.426 12.6142C18.0584 12.7664 17.7664 13.0584 17.6142 13.426L18.0761 13.6173ZM8 20V19.5C7.51446 19.5 7.20061 19.4989 6.96935 19.4678C6.75248 19.4387 6.68451 19.3916 6.64645 19.3536L6.29289 19.7071L5.93934 20.0607C6.19417 20.3155 6.50835 20.4149 6.8361 20.4589C7.14948 20.5011 7.54273 20.5 8 20.5V20ZM6 18H5.5C5.5 18.4573 5.49894 18.8505 5.54107 19.1639C5.58514 19.4917 5.68451 19.8058 5.93934 20.0607L6.29289 19.7071L6.64645 19.3536C6.60838 19.3155 6.56131 19.2475 6.53215 19.0306C6.50106 18.7994 6.5 18.4855 6.5 18H6ZM16 20V20.5C16.4573 20.5 16.8505 20.5011 17.1639 20.4589C17.4917 20.4149 17.8058 20.3155 18.0607 20.0607L17.7071 19.7071L17.3536 19.3536C17.3155 19.3916 17.2475 19.4387 17.0306 19.4678C16.7994 19.4989 16.4855 19.5 16 19.5V20ZM18 18H17.5C17.5 18.4855 17.4989 18.7994 17.4678 19.0306C17.4387 19.2475 17.3916 19.3155 17.3536 19.3536L17.7071 19.7071L18.0607 20.0607C18.3155 19.8058 18.4149 19.4917 18.4589 19.1639C18.5011 18.8505 18.5 18.4573 18.5 18H18ZM19 8V8.5C19.4855 8.5 19.7994 8.50106 20.0306 8.53215C20.2475 8.56131 20.3155 8.60839 20.3536 8.64645L20.7071 8.29289L21.0607 7.93934C20.8058 7.68451 20.4917 7.58514 20.1639 7.54107C19.8505 7.49894 19.4573 7.5 19 7.5V8ZM21 10H21.5C21.5 9.54273 21.5011 9.14948 21.4589 8.83611C21.4149 8.50835 21.3155 8.19417 21.0607 7.93934L20.7071 8.29289L20.3536 8.64645C20.3916 8.68451 20.4387 8.75248 20.4678 8.96935C20.4989 9.20061 20.5 9.51446 20.5 10H21ZM5 8V7.5C4.54273 7.5 4.14948 7.49894 3.8361 7.54107C3.50835 7.58514 3.19417 7.68451 2.93934 7.93934L3.29289 8.29289L3.64645 8.64645C3.68451 8.60839 3.75248 8.56131 3.96935 8.53215C4.20061 8.50106 4.51446 8.5 5 8.5V8ZM3 10H3.5C3.5 9.51446 3.50106 9.20061 3.53215 8.96935C3.56131 8.75248 3.60838 8.68451 3.64645 8.64645L3.29289 8.29289L2.93934 7.93934C2.68451 8.19417 2.58514 8.50835 2.54107 8.83611C2.49894 9.14948 2.5 9.54273 2.5 10H3ZM5 13V13.5H19V13V12.5H5V13ZM12 7H11.5V20H12H12.5V7H12ZM5 5.45035H4.5V5.63246H5H5.5V5.45035H5ZM6.29737 7.43246L6.13925 7.9068L7.84189 8.47434L8 8L8.15811 7.52566L6.45548 6.95812L6.29737 7.43246ZM12 7L12.3536 6.64645L11.475 5.76789L11.1214 6.12145L10.7679 6.475L11.6464 7.35355L12 7ZM11.1214 6.12145L11.475 5.76789C10.3538 4.6467 8.98696 3.80194 7.48272 3.30053L7.3246 3.77487L7.16649 4.24921C8.52345 4.70153 9.75647 5.46358 10.7679 6.475L11.1214 6.12145ZM5 5.63246H4.5C4.5 6.66436 5.16031 7.58048 6.13925 7.9068L6.29737 7.43246L6.45548 6.95812C5.88488 6.76791 5.5 6.23393 5.5 5.63246H5ZM5 5.45035H5.5C5.5 4.58615 6.34664 3.97593 7.16649 4.24921L7.3246 3.77487L7.48272 3.30053C6.01534 2.8114 4.5 3.9036 4.5 5.45035H5ZM19 5.45035H18.5V5.63246H19H19.5V5.45035H19ZM17.7026 7.43246L17.5445 6.95812L15.8419 7.52566L16 8L16.1581 8.47434L17.8607 7.9068L17.7026 7.43246ZM12 7L12.3536 7.35355L13.2321 6.475L12.8786 6.12145L12.525 5.76789L11.6464 6.64645L12 7ZM12.8786 6.12145L13.2321 6.475C14.2435 5.46358 15.4765 4.70153 16.8335 4.24921L16.6754 3.77487L16.5173 3.30053C15.013 3.80194 13.6462 4.6467 12.525 5.76789L12.8786 6.12145ZM19 5.63246H18.5C18.5 6.23393 18.1151 6.76791 17.5445 6.95812L17.7026 7.43246L17.8607 7.9068C18.8397 7.58048 19.5 6.66436 19.5 5.63246H19ZM19 5.45035H19.5C19.5 3.9036 17.9847 2.8114 16.5173 3.30053L16.6754 3.77487L16.8335 4.24921C17.6534 3.97593 18.5 4.58615 18.5 5.45035H19Z" fill="#1E1E1E"/>
</svg>
